# xmcd
#
# Track frame offsets:
#	150
#	18273
#	33444
#	43703
#	53011
#	64584
#	75209
#	89810
#	102708
#	115480
#	123425
#	132074
#	145603
#	154678
#	164493
#	174794
#	189455
#	202353
#	213554
#	225512
#	232997
#	244539
#
# Disc length: 3400 seconds
#
# Revision: 0
# Processed by: cddbd v1.4PL0 Copyright (c) Steve Scherf et al.
# Submitted via: EasyCDDAExtractor 4.5.0.2
#
DISCID=270d4616
DTITLE=ежг хыдг - пяепеи ма сумамтихоуле
DYEAR=2002
DGENRE=меодглотийа
TTITLE0=пяепеи ма сумамтгхоуле
TTITLE1=жеуцеис есу
TTITLE2=то дайяу стака стака
TTITLE3=циати цкуйиа лоу йкаис
TTITLE4=леса се лиа мувта
TTITLE5=та киламиа
TTITLE6=лахе пяыта поиа еилаи ецы
TTITLE7=яытас ма лахеис
TTITLE8=хакассайи лоу
TTITLE9=г цакиамтяа
TTITLE10=амтяа лоу паяапомиаяг
TTITLE11=то пяыто соу жики
TTITLE12=жаялайи кицо кицо
TTITLE13=сгйы йатсе
TTITLE14=о цйяимиаягс лоу
TTITLE15=амеба сто тяапефи лоу
TTITLE16=ха то лахы поу пас
TTITLE17=жтамеи йаядоука лоу
TTITLE18=то ваяели
TTITLE19=пая' то дайтукиди лоу
TTITLE20=то сжгмайи
TTITLE21=то лекамоуяи лоу
EXTD=
EXTT0=
EXTT1=
EXTT2=
EXTT3=
EXTT4=
EXTT5=
EXTT6=
EXTT7=
EXTT8=
EXTT9=
EXTT10=
EXTT11=
EXTT12=
EXTT13=
EXTT14=
EXTT15=
EXTT16=
EXTT17=
EXTT18=
EXTT19=
EXTT20=
EXTT21=
PLAYORDER=
